<?xml version="1.0" encoding="UTF-8" standalone="no"?>
<!-- Generator: Adobe Illustrator 16.0.0, SVG Export Plug-In . SVG Version: 6.00 Build 0)  -->

<svg
   xmlns:dc="http://purl.org/dc/elements/1.1/"
   xmlns:cc="http://creativecommons.org/ns#"
   xmlns:rdf="http://www.w3.org/1999/02/22-rdf-syntax-ns#"
   xmlns:svg="http://www.w3.org/2000/svg"
   xmlns="http://www.w3.org/2000/svg"
   xmlns:sodipodi="http://sodipodi.sourceforge.net/DTD/sodipodi-0.dtd"
   xmlns:inkscape="http://www.inkscape.org/namespaces/inkscape"
   version="1.1"
   id="Capa_1"
   x="0px"
   y="0px"
   width="32"
   height="32"
   viewBox="0 0 32.000001 32.000001"
   xml:space="preserve"
   inkscape:version="0.91 r13725"
   sodipodi:docname="mountn_icon.svg"><metadata
     id="metadata3478"><rdf:RDF><cc:Work
         rdf:about=""><dc:format>image/svg+xml</dc:format><dc:type
           rdf:resource="http://purl.org/dc/dcmitype/StillImage" /><dc:title></dc:title></cc:Work></rdf:RDF></metadata><defs
     id="defs3476" /><sodipodi:namedview
     pagecolor="#ffffff"
     bordercolor="#666666"
     borderopacity="1"
     objecttolerance="10"
     gridtolerance="10"
     guidetolerance="10"
     inkscape:pageopacity="0"
     inkscape:pageshadow="2"
     inkscape:window-width="1366"
     inkscape:window-height="719"
     id="namedview3474"
     showgrid="false"
     fit-margin-top="0"
     fit-margin-left="0"
     fit-margin-right="0"
     fit-margin-bottom="0"
     inkscape:zoom="2.2254074"
     inkscape:cx="27.683752"
     inkscape:cy="16.000011"
     inkscape:window-x="0"
     inkscape:window-y="25"
     inkscape:window-maximized="1"
     inkscape:current-layer="Capa_1" /><rect
     style="fill:#ffffff;fill-rule:evenodd;stroke:#000000;stroke-width:1px;stroke-linecap:butt;stroke-linejoin:miter;stroke-opacity:1;fill-opacity:1"
     id="rect3575"
     width="24.265219"
     height="20.670372"
     x="4.0442033"
     y="7.2854247" /><g
     id="g3470"
     transform="scale(0.301753,0.30175015)"><path
       style="fill:#010002"
       d="M 84.838,0 21.209,0 C 9.543,0 0,9.543 0,21.209 l 0,63.629 c 0,11.666 9.543,21.21 21.209,21.21 l 63.628,0 c 11.667,0 21.21,-9.544 21.21,-21.21 l 0,-63.629 C 106.048,9.543 96.505,0 84.838,0 Z m -71.582,74.694 3.946,-6.841 12.28,-21.287 c 2.175,-3.759 5.722,-3.759 7.889,0 0,0 2.853,4.94 3.197,5.52 1.634,-2.827 10.34,-17.919 10.34,-17.919 2.178,-3.759 5.72,-3.759 7.895,0 l 17.295,29.968 c 0.891,-1.543 1.771,-3.065 2.454,-4.246 1.564,-2.718 4.122,-2.718 5.696,0 1.574,2.714 4.132,7.156 5.706,9.864 l 2.833,4.936 -79.531,0 0,0.005 z"
       id="path3472"
       inkscape:connector-curvature="0" /></g></svg>